<svg width="98" height="335" viewBox="0 0 98 335" fill="none" xmlns="http://www.w3.org/2000/svg">
<ellipse cx="1.62688" cy="1.88614" rx="1.62688" ry="1.88614" transform="matrix(-0.526396 -0.85024 -0.85024 0.526396 97.5977 228.858)" fill="#0B363B"/>
<ellipse cx="1.62688" cy="1.88614" rx="1.62688" ry="1.88614" transform="matrix(-0.526396 -0.85024 -0.85024 0.526396 87.3212 212.26)" fill="#0B363B"/>
<ellipse cx="1.62688" cy="1.88614" rx="1.62688" ry="1.88614" transform="matrix(-0.526396 -0.85024 -0.85024 0.526396 77.0446 195.661)" fill="#0B363B"/>
<ellipse cx="1.62688" cy="1.88614" rx="1.62688" ry="1.88614" transform="matrix(-0.526396 -0.85024 -0.85024 0.526396 66.768 179.062)" fill="#0B363B"/>
<ellipse cx="1.62688" cy="1.88614" rx="1.62688" ry="1.88614" transform="matrix(-0.526396 -0.85024 -0.85024 0.526396 56.4914 162.463)" fill="#0B363B"/>
<ellipse cx="1.62688" cy="1.88614" rx="1.62688" ry="1.88614" transform="matrix(-0.526396 -0.85024 -0.85024 0.526396 46.2148 145.864)" fill="#0B363B"/>
<ellipse cx="1.62688" cy="1.88614" rx="1.62688" ry="1.88614" transform="matrix(-0.526396 -0.85024 -0.85024 0.526396 35.9382 129.265)" fill="#0B363B"/>
<ellipse cx="1.62688" cy="1.88614" rx="1.62688" ry="1.88614" transform="matrix(-0.526396 -0.85024 -0.85024 0.526396 25.6617 112.667)" fill="#0B363B"/>
<ellipse cx="1.62688" cy="1.88614" rx="1.62688" ry="1.88614" transform="matrix(-0.526396 -0.85024 -0.85024 0.526396 15.385 96.0676)" fill="#0B363B"/>
<ellipse cx="1.62688" cy="1.88614" rx="1.62688" ry="1.88614" transform="matrix(-0.526396 -0.85024 -0.85024 0.526396 5.10849 79.4688)" fill="#0B363B"/>
<ellipse cx="1.62688" cy="1.88614" rx="1.62688" ry="1.88614" transform="matrix(-0.526396 -0.85024 -0.85024 0.526396 78.3537 240.773)" fill="#0B363B"/>
<ellipse cx="1.62688" cy="1.88614" rx="1.62688" ry="1.88614" transform="matrix(-0.526396 -0.85024 -0.85024 0.526396 68.0771 224.174)" fill="#0B363B"/>
<ellipse cx="1.62688" cy="1.88614" rx="1.62688" ry="1.88614" transform="matrix(-0.526396 -0.85024 -0.85024 0.526396 57.8004 207.575)" fill="#0B363B"/>
<ellipse cx="1.62688" cy="1.88614" rx="1.62688" ry="1.88614" transform="matrix(-0.526396 -0.85024 -0.85024 0.526396 47.5239 190.976)" fill="#0B363B"/>
<ellipse cx="1.62688" cy="1.88614" rx="1.62688" ry="1.88614" transform="matrix(-0.526396 -0.85024 -0.85024 0.526396 37.2473 174.377)" fill="#0B363B"/>
<ellipse cx="1.62688" cy="1.88614" rx="1.62688" ry="1.88614" transform="matrix(-0.526396 -0.85024 -0.85024 0.526396 26.9707 157.779)" fill="#0B363B"/>
<ellipse cx="1.62688" cy="1.88614" rx="1.62688" ry="1.88614" transform="matrix(-0.526396 -0.85024 -0.85024 0.526396 16.6941 141.18)" fill="#0B363B"/>
<ellipse cx="1.62688" cy="1.88614" rx="1.62688" ry="1.88614" transform="matrix(-0.526396 -0.85024 -0.85024 0.526396 6.41754 124.581)" fill="#0B363B"/>
<ellipse cx="1.62688" cy="1.88614" rx="1.62688" ry="1.88614" transform="matrix(-0.526396 -0.85024 -0.85024 0.526396 59.1097 252.687)" fill="#0B363B"/>
<ellipse cx="1.62688" cy="1.88614" rx="1.62688" ry="1.88614" transform="matrix(-0.526396 -0.85024 -0.85024 0.526396 48.8332 236.088)" fill="#0B363B"/>
<ellipse cx="1.62688" cy="1.88614" rx="1.62688" ry="1.88614" transform="matrix(-0.526396 -0.85024 -0.85024 0.526396 38.5565 219.489)" fill="#0B363B"/>
<ellipse cx="1.62688" cy="1.88614" rx="1.62688" ry="1.88614" transform="matrix(-0.526396 -0.85024 -0.85024 0.526396 28.28 202.89)" fill="#0B363B"/>
<ellipse cx="1.62688" cy="1.88614" rx="1.62688" ry="1.88614" transform="matrix(-0.526396 -0.85024 -0.85024 0.526396 18.0034 186.291)" fill="#0B363B"/>
<ellipse cx="1.62688" cy="1.88614" rx="1.62688" ry="1.88614" transform="matrix(-0.526396 -0.85024 -0.85024 0.526396 7.72684 169.693)" fill="#0B363B"/>
<ellipse cx="1.62688" cy="1.88614" rx="1.62688" ry="1.88614" transform="matrix(-0.526396 -0.85024 -0.85024 0.526396 39.8657 264.601)" fill="#0B363B"/>
<ellipse cx="1.62688" cy="1.88614" rx="1.62688" ry="1.88614" transform="matrix(-0.526396 -0.85024 -0.85024 0.526396 29.5891 248.002)" fill="#0B363B"/>
<ellipse cx="1.62688" cy="1.88614" rx="1.62688" ry="1.88614" transform="matrix(-0.526396 -0.85024 -0.85024 0.526396 19.3124 231.403)" fill="#0B363B"/>
<ellipse cx="1.62688" cy="1.88614" rx="1.62688" ry="1.88614" transform="matrix(-0.526396 -0.85024 -0.85024 0.526396 9.03589 214.805)" fill="#0B363B"/>
<ellipse cx="1.62688" cy="1.88614" rx="1.62688" ry="1.88614" transform="matrix(-0.526396 -0.85024 -0.85024 0.526396 20.6216 276.515)" fill="#0B363B"/>
<ellipse cx="1.62688" cy="1.88614" rx="1.62688" ry="1.88614" transform="matrix(-0.526396 -0.85024 -0.85024 0.526396 10.3451 259.917)" fill="#0B363B"/>
<ellipse cx="1.62688" cy="1.88614" rx="1.62688" ry="1.88614" transform="matrix(-0.526396 -0.85024 -0.85024 0.526396 0.0684814 243.318)" fill="#0B363B"/>
<ellipse cx="1.62688" cy="1.88614" rx="1.62688" ry="1.88614" transform="matrix(-0.526396 -0.85024 -0.85024 0.526396 1.37756 288.43)" fill="#0B363B"/>
</svg>
