<svg width="107" height="335" viewBox="0 0 107 335" fill="none" xmlns="http://www.w3.org/2000/svg">
<ellipse cx="2.46005" cy="228.468" rx="1.62688" ry="1.88614" transform="rotate(-58.2378 2.46005 228.468)" fill="#0B363B"/>
<ellipse cx="12.7367" cy="211.869" rx="1.62688" ry="1.88614" transform="rotate(-58.2378 12.7367 211.869)" fill="#0B363B"/>
<ellipse cx="23.0133" cy="195.27" rx="1.62688" ry="1.88614" transform="rotate(-58.2378 23.0133 195.27)" fill="#0B363B"/>
<ellipse cx="33.2899" cy="178.672" rx="1.62688" ry="1.88614" transform="rotate(-58.2378 33.2899 178.672)" fill="#0B363B"/>
<ellipse cx="43.5665" cy="162.073" rx="1.62688" ry="1.88614" transform="rotate(-58.2378 43.5665 162.073)" fill="#0B363B"/>
<ellipse cx="53.8429" cy="145.474" rx="1.62688" ry="1.88614" transform="rotate(-58.2378 53.8429 145.474)" fill="#0B363B"/>
<ellipse cx="64.1195" cy="128.875" rx="1.62688" ry="1.88614" transform="rotate(-58.2378 64.1195 128.875)" fill="#0B363B"/>
<ellipse cx="74.3961" cy="112.276" rx="1.62688" ry="1.88614" transform="rotate(-58.2378 74.3961 112.276)" fill="#0B363B"/>
<ellipse cx="84.6727" cy="95.6772" rx="1.62688" ry="1.88614" transform="rotate(-58.2378 84.6727 95.6772)" fill="#0B363B"/>
<ellipse cx="94.9493" cy="79.0784" rx="1.62688" ry="1.88614" transform="rotate(-58.2378 94.9493 79.0784)" fill="#0B363B"/>
<ellipse cx="21.7042" cy="240.382" rx="1.62688" ry="1.88614" transform="rotate(-58.2378 21.7042 240.382)" fill="#0B363B"/>
<ellipse cx="31.9808" cy="223.784" rx="1.62688" ry="1.88614" transform="rotate(-58.2378 31.9808 223.784)" fill="#0B363B"/>
<ellipse cx="42.2574" cy="207.185" rx="1.62688" ry="1.88614" transform="rotate(-58.2378 42.2574 207.185)" fill="#0B363B"/>
<ellipse cx="52.534" cy="190.586" rx="1.62688" ry="1.88614" transform="rotate(-58.2378 52.534 190.586)" fill="#0B363B"/>
<ellipse cx="62.8106" cy="173.987" rx="1.62688" ry="1.88614" transform="rotate(-58.2378 62.8106 173.987)" fill="#0B363B"/>
<ellipse cx="73.0872" cy="157.388" rx="1.62688" ry="1.88614" transform="rotate(-58.2378 73.0872 157.388)" fill="#0B363B"/>
<ellipse cx="83.3639" cy="140.789" rx="1.62688" ry="1.88614" transform="rotate(-58.2378 83.3639 140.789)" fill="#0B363B"/>
<ellipse cx="93.6402" cy="124.19" rx="1.62688" ry="1.88614" transform="rotate(-58.2378 93.6402 124.19)" fill="#0B363B"/>
<ellipse cx="103.917" cy="107.592" rx="1.62688" ry="1.88614" transform="rotate(-58.2378 103.917 107.592)" fill="#0B363B"/>
<ellipse cx="40.9481" cy="252.296" rx="1.62688" ry="1.88614" transform="rotate(-58.2378 40.9481 252.296)" fill="#0B363B"/>
<ellipse cx="51.2247" cy="235.698" rx="1.62688" ry="1.88614" transform="rotate(-58.2378 51.2247 235.698)" fill="#0B363B"/>
<ellipse cx="61.5013" cy="219.099" rx="1.62688" ry="1.88614" transform="rotate(-58.2378 61.5013 219.099)" fill="#0B363B"/>
<ellipse cx="71.7777" cy="202.5" rx="1.62688" ry="1.88614" transform="rotate(-58.2378 71.7777 202.5)" fill="#0B363B"/>
<ellipse cx="82.0543" cy="185.901" rx="1.62688" ry="1.88614" transform="rotate(-58.2378 82.0543 185.901)" fill="#0B363B"/>
<ellipse cx="92.3309" cy="169.302" rx="1.62688" ry="1.88614" transform="rotate(-58.2378 92.3309 169.302)" fill="#0B363B"/>
<ellipse cx="102.608" cy="152.703" rx="1.62688" ry="1.88614" transform="rotate(-58.2378 102.608 152.703)" fill="#0B363B"/>
<ellipse cx="60.1922" cy="264.211" rx="1.62688" ry="1.88614" transform="rotate(-58.2378 60.1922 264.211)" fill="#0B363B"/>
<ellipse cx="70.4688" cy="247.612" rx="1.62688" ry="1.88614" transform="rotate(-58.2378 70.4688 247.612)" fill="#0B363B"/>
<ellipse cx="80.7455" cy="231.013" rx="1.62688" ry="1.88614" transform="rotate(-58.2378 80.7455 231.013)" fill="#0B363B"/>
<ellipse cx="91.0221" cy="214.414" rx="1.62688" ry="1.88614" transform="rotate(-58.2378 91.0221 214.414)" fill="#0B363B"/>
<ellipse cx="101.299" cy="197.815" rx="1.62688" ry="1.88614" transform="rotate(-58.2378 101.299 197.815)" fill="#0B363B"/>
<ellipse cx="79.4361" cy="276.125" rx="1.62688" ry="1.88614" transform="rotate(-58.2378 79.4361 276.125)" fill="#0B363B"/>
<ellipse cx="89.7125" cy="259.526" rx="1.62688" ry="1.88614" transform="rotate(-58.2378 89.7125 259.526)" fill="#0B363B"/>
<ellipse cx="99.9893" cy="242.927" rx="1.62688" ry="1.88614" transform="rotate(-58.2378 99.9893 242.927)" fill="#0B363B"/>
<ellipse cx="98.6803" cy="288.039" rx="1.62688" ry="1.88614" transform="rotate(-58.2378 98.6803 288.039)" fill="#0B363B"/>
<ellipse cx="108.957" cy="271.44" rx="1.62688" ry="1.88614" transform="rotate(-58.2378 108.957 271.44)" fill="#0B363B"/>
</svg>
