<svg width="18" height="16" viewBox="0 0 18 16" fill="none" xmlns="http://www.w3.org/2000/svg">
<g clip-path="url(#clip0_1_2371)">
<path d="M17.005 4.70404C16.9673 3.8539 16.8291 3.26944 16.6311 2.76299C16.4269 2.22541 16.1127 1.74411 15.7011 1.34401C15.2989 0.937683 14.8119 0.621948 14.2777 0.421957C13.7657 0.22502 13.1812 0.0875415 12.3266 0.0500586C11.4657 0.00940124 11.1923 0 9.00867 0C6.82499 0 6.55167 0.00940124 5.69388 0.0468842C4.83929 0.0843671 4.25177 0.221967 3.74279 0.418783C3.20227 0.621948 2.71846 0.934509 2.31626 1.34401C1.9078 1.74411 1.59054 2.22858 1.38938 2.75994C1.19141 3.26944 1.05321 3.85073 1.01553 4.70087C0.97466 5.55736 0.96521 5.82926 0.96521 8.00156C0.96521 10.1739 0.97466 10.4458 1.01234 11.2991C1.05002 12.1492 1.18834 12.7337 1.38631 13.2401C1.59054 13.7777 1.9078 14.259 2.31626 14.6591C2.71846 15.0654 3.20546 15.3812 3.7396 15.5812C4.25177 15.7781 4.8361 15.9156 5.69081 15.9531C6.54848 15.9907 6.82193 15.9999 9.0056 15.9999C11.1893 15.9999 11.4626 15.9907 12.3204 15.9531C13.175 15.9156 13.7625 15.7781 14.2715 15.5812C15.3524 15.1654 16.207 14.3153 16.6249 13.2401C16.8227 12.7306 16.9611 12.1492 16.9987 11.2991C17.0364 10.4458 17.0459 10.1739 17.0459 8.00156C17.0459 5.82926 17.0427 5.55736 17.005 4.70404ZM15.5566 11.2366C15.522 12.018 15.3901 12.4399 15.2801 12.7212C15.0098 13.4183 14.4537 13.9715 13.753 14.2403C13.4703 14.3497 13.043 14.481 12.2606 14.5153C11.4123 14.5529 11.1579 14.5622 9.01186 14.5622C6.86586 14.5622 6.60825 14.5529 5.76298 14.5153C4.97749 14.481 4.55332 14.3497 4.27054 14.2403C3.92186 14.1121 3.60447 13.909 3.34685 13.6433C3.07978 13.3838 2.87556 13.0713 2.74669 12.7244C2.63672 12.4431 2.50478 12.018 2.47029 11.2397C2.43249 10.3958 2.42316 10.1426 2.42316 8.00779C2.42316 5.87297 2.43249 5.6167 2.47029 4.77596C2.50478 3.99455 2.63672 3.5726 2.74669 3.29129C2.87556 2.9443 3.07978 2.62869 3.35004 2.37229C3.61073 2.10661 3.92493 1.90345 4.27373 1.77537C4.55651 1.66597 4.98387 1.53472 5.76617 1.50029C6.61451 1.46281 6.86905 1.45341 9.01493 1.45341C11.1641 1.45341 11.4185 1.46281 12.2638 1.50029C13.0493 1.53472 13.4735 1.66597 13.7562 1.77537C14.1049 1.90345 14.4223 2.10661 14.6799 2.37229C14.947 2.63174 15.1512 2.9443 15.2801 3.29129C15.3901 3.5726 15.522 3.99761 15.5566 4.77596C15.5943 5.61987 15.6037 5.87297 15.6037 8.00779C15.6037 10.1426 15.5943 10.3927 15.5566 11.2366Z" fill="white"/>
<path d="M9.00889 3.89136C6.72789 3.89136 4.8772 5.73229 4.8772 8.00153C4.8772 10.2708 6.72789 12.1117 9.00889 12.1117C11.29 12.1117 13.1406 10.2708 13.1406 8.00153C13.1406 5.73229 11.29 3.89136 9.00889 3.89136ZM9.00889 10.6677C7.5291 10.6677 6.32876 9.47375 6.32876 8.00153C6.32876 6.52932 7.5291 5.33536 9.00889 5.33536C10.4888 5.33536 11.689 6.52932 11.689 8.00153C11.689 9.47375 10.4888 10.6677 9.00889 10.6677Z" fill="white"/>
<path d="M14.2686 3.72883C14.2686 4.25871 13.8367 4.68836 13.3039 4.68836C12.7713 4.68836 12.3394 4.25871 12.3394 3.72883C12.3394 3.19881 12.7713 2.76929 13.3039 2.76929C13.8367 2.76929 14.2686 3.19881 14.2686 3.72883Z" fill="white"/>
</g>
<defs>
<clipPath id="clip0_1_2371">
<rect width="16.0838" height="16" fill="white" transform="translate(0.937134)"/>
</clipPath>
</defs>
</svg>
