<svg width="17" height="16" viewBox="0 0 17 16" fill="none" xmlns="http://www.w3.org/2000/svg">
<g clip-path="url(#clip0_1_2370)">
<path d="M16.22 3.039C15.6219 3.3 14.9846 3.473 14.3201 3.557C15.0037 3.151 15.5254 2.513 15.7707 1.744C15.1333 2.122 14.4297 2.389 13.6798 2.538C13.0746 1.897 12.2121 1.5 11.2712 1.5C9.44572 1.5 7.97606 2.974 7.97606 4.781C7.97606 5.041 7.99818 5.291 8.05246 5.529C5.31118 5.396 2.88555 4.089 1.25606 2.098C0.971581 2.589 0.804712 3.151 0.804712 3.756C0.804712 4.892 1.39277 5.899 2.26934 6.482C1.73958 6.472 1.21987 6.319 0.779581 6.078C0.779581 6.088 0.779581 6.101 0.779581 6.114C0.779581 7.708 1.92253 9.032 3.42134 9.337C3.15294 9.41 2.86042 9.445 2.55684 9.445C2.34574 9.445 2.13263 9.433 1.93259 9.389C2.35981 10.688 3.57213 11.643 5.01363 11.674C3.89179 12.547 2.46737 13.073 0.92534 13.073C0.654932 13.073 0.395581 13.061 0.13623 13.028C1.59684 13.965 3.32785 14.5 5.19458 14.5C11.2622 14.5 14.5795 9.5 14.5795 5.166C14.5795 5.021 14.5744 4.881 14.5674 4.742C15.2218 4.28 15.7717 3.703 16.22 3.039Z" fill="white"/>
</g>
<defs>
<clipPath id="clip0_1_2370">
<rect width="16.0838" height="16" fill="white" transform="translate(0.13623)"/>
</clipPath>
</defs>
</svg>
